<mxfile host="app.diagrams.net" agent="Mozilla/5.0 (X11; Ubuntu; Linux x86_64; rv:141.0) Gecko/20100101 Firefox/141.0" version="28.0.7">
  <diagram name="Page-1" id="IBkn1AV6_XAYANT_Cgsg">
    <mxGraphModel dx="2011" dy="1200" grid="1" gridSize="10" guides="1" tooltips="1" connect="1" arrows="1" fold="1" page="1" pageScale="1" pageWidth="850" pageHeight="1100" math="0" shadow="0">
      <root>
        <mxCell id="0" />
        <mxCell id="1" parent="0" />
        <mxCell id="pYmCYZU_hMyukzqT8dL1-25" value="" style="edgeStyle=orthogonalEdgeStyle;rounded=0;orthogonalLoop=1;jettySize=auto;html=1;" parent="1" source="pYmCYZU_hMyukzqT8dL1-4" target="pYmCYZU_hMyukzqT8dL1-5" edge="1">
          <mxGeometry relative="1" as="geometry" />
        </mxCell>
        <mxCell id="pYmCYZU_hMyukzqT8dL1-4" value="user" style="shape=umlActor;verticalLabelPosition=bottom;verticalAlign=top;html=1;outlineConnect=0;" parent="1" vertex="1">
          <mxGeometry x="10" y="390" width="30" height="60" as="geometry" />
        </mxCell>
        <mxCell id="pYmCYZU_hMyukzqT8dL1-5" value="LB" style="rounded=1;whiteSpace=wrap;html=1;" parent="1" vertex="1">
          <mxGeometry x="80" y="160" width="50" height="520" as="geometry" />
        </mxCell>
        <mxCell id="pYmCYZU_hMyukzqT8dL1-6" value="posts service" style="rounded=1;whiteSpace=wrap;html=1;" parent="1" vertex="1">
          <mxGeometry x="160" y="170" width="120" height="60" as="geometry" />
        </mxCell>
        <mxCell id="pYmCYZU_hMyukzqT8dL1-24" value="" style="edgeStyle=orthogonalEdgeStyle;rounded=0;orthogonalLoop=1;jettySize=auto;html=1;" parent="1" source="pYmCYZU_hMyukzqT8dL1-7" target="pYmCYZU_hMyukzqT8dL1-8" edge="1">
          <mxGeometry relative="1" as="geometry" />
        </mxCell>
        <mxCell id="pYmCYZU_hMyukzqT8dL1-7" value="cassandra" style="shape=cylinder3;whiteSpace=wrap;html=1;boundedLbl=1;backgroundOutline=1;size=15;" parent="1" vertex="1">
          <mxGeometry x="320" y="160" width="100" height="80" as="geometry" />
        </mxCell>
        <mxCell id="pYmCYZU_hMyukzqT8dL1-28" style="edgeStyle=orthogonalEdgeStyle;rounded=0;orthogonalLoop=1;jettySize=auto;html=1;exitX=1;exitY=0.5;exitDx=0;exitDy=0;entryX=1;entryY=0;entryDx=0;entryDy=0;" parent="1" source="pYmCYZU_hMyukzqT8dL1-8" target="pYmCYZU_hMyukzqT8dL1-14" edge="1">
          <mxGeometry relative="1" as="geometry">
            <Array as="points">
              <mxPoint x="840" y="200" />
            </Array>
          </mxGeometry>
        </mxCell>
        <mxCell id="pYmCYZU_hMyukzqT8dL1-8" value="CDC" style="shape=process;whiteSpace=wrap;html=1;backgroundOutline=1;" parent="1" vertex="1">
          <mxGeometry x="530" y="170" width="120" height="60" as="geometry" />
        </mxCell>
        <mxCell id="pYmCYZU_hMyukzqT8dL1-9" value="users / profile service" style="rounded=1;whiteSpace=wrap;html=1;" parent="1" vertex="1">
          <mxGeometry x="160" y="300" width="120" height="60" as="geometry" />
        </mxCell>
        <mxCell id="pYmCYZU_hMyukzqT8dL1-22" value="" style="edgeStyle=orthogonalEdgeStyle;rounded=0;orthogonalLoop=1;jettySize=auto;html=1;startArrow=classicThin;startFill=1;" parent="1" source="pYmCYZU_hMyukzqT8dL1-10" target="pYmCYZU_hMyukzqT8dL1-12" edge="1">
          <mxGeometry relative="1" as="geometry" />
        </mxCell>
        <mxCell id="pYmCYZU_hMyukzqT8dL1-10" value="search" style="rounded=1;whiteSpace=wrap;html=1;" parent="1" vertex="1">
          <mxGeometry x="160" y="500" width="120" height="60" as="geometry" />
        </mxCell>
        <mxCell id="pYmCYZU_hMyukzqT8dL1-21" style="edgeStyle=orthogonalEdgeStyle;rounded=0;orthogonalLoop=1;jettySize=auto;html=1;exitX=1;exitY=0.5;exitDx=0;exitDy=0;exitPerimeter=0;entryX=0;entryY=0.5;entryDx=0;entryDy=0;" parent="1" source="pYmCYZU_hMyukzqT8dL1-11" target="pYmCYZU_hMyukzqT8dL1-17" edge="1">
          <mxGeometry relative="1" as="geometry" />
        </mxCell>
        <mxCell id="pYmCYZU_hMyukzqT8dL1-11" value="Profile Postgres" style="shape=cylinder3;whiteSpace=wrap;html=1;boundedLbl=1;backgroundOutline=1;size=15;" parent="1" vertex="1">
          <mxGeometry x="450" y="290" width="100" height="80" as="geometry" />
        </mxCell>
        <mxCell id="pYmCYZU_hMyukzqT8dL1-12" value="Elastic search" style="shape=cylinder3;whiteSpace=wrap;html=1;boundedLbl=1;backgroundOutline=1;size=15;" parent="1" vertex="1">
          <mxGeometry x="320" y="490" width="100" height="80" as="geometry" />
        </mxCell>
        <mxCell id="pYmCYZU_hMyukzqT8dL1-13" value="Redis" style="shape=cylinder3;whiteSpace=wrap;html=1;boundedLbl=1;backgroundOutline=1;size=15;" parent="1" vertex="1">
          <mxGeometry x="340" y="290" width="60" height="80" as="geometry" />
        </mxCell>
        <mxCell id="pYmCYZU_hMyukzqT8dL1-14" value="Flink shared by user id" style="rounded=1;whiteSpace=wrap;html=1;" parent="1" vertex="1">
          <mxGeometry x="700" y="620" width="140" height="60" as="geometry" />
        </mxCell>
        <mxCell id="pYmCYZU_hMyukzqT8dL1-23" value="" style="edgeStyle=orthogonalEdgeStyle;rounded=0;orthogonalLoop=1;jettySize=auto;html=1;startArrow=classic;startFill=1;" parent="1" source="pYmCYZU_hMyukzqT8dL1-15" target="pYmCYZU_hMyukzqT8dL1-16" edge="1">
          <mxGeometry relative="1" as="geometry" />
        </mxCell>
        <mxCell id="pYmCYZU_hMyukzqT8dL1-15" value="feed" style="rounded=1;whiteSpace=wrap;html=1;" parent="1" vertex="1">
          <mxGeometry x="160" y="620" width="120" height="60" as="geometry" />
        </mxCell>
        <mxCell id="pYmCYZU_hMyukzqT8dL1-16" value="Cassandra" style="shape=cylinder3;whiteSpace=wrap;html=1;boundedLbl=1;backgroundOutline=1;size=15;" parent="1" vertex="1">
          <mxGeometry x="320" y="610" width="100" height="80" as="geometry" />
        </mxCell>
        <mxCell id="pYmCYZU_hMyukzqT8dL1-17" value="CDC" style="shape=process;whiteSpace=wrap;html=1;backgroundOutline=1;" parent="1" vertex="1">
          <mxGeometry x="610" y="300" width="120" height="60" as="geometry" />
        </mxCell>
        <mxCell id="pYmCYZU_hMyukzqT8dL1-18" style="edgeStyle=orthogonalEdgeStyle;rounded=0;orthogonalLoop=1;jettySize=auto;html=1;entryX=0;entryY=0.5;entryDx=0;entryDy=0;entryPerimeter=0;startArrow=classic;startFill=1;" parent="1" source="pYmCYZU_hMyukzqT8dL1-6" target="pYmCYZU_hMyukzqT8dL1-7" edge="1">
          <mxGeometry relative="1" as="geometry" />
        </mxCell>
        <mxCell id="pYmCYZU_hMyukzqT8dL1-19" style="edgeStyle=orthogonalEdgeStyle;rounded=0;orthogonalLoop=1;jettySize=auto;html=1;entryX=0;entryY=0.5;entryDx=0;entryDy=0;entryPerimeter=0;startArrow=classic;startFill=1;" parent="1" source="pYmCYZU_hMyukzqT8dL1-9" target="pYmCYZU_hMyukzqT8dL1-13" edge="1">
          <mxGeometry relative="1" as="geometry" />
        </mxCell>
        <mxCell id="pYmCYZU_hMyukzqT8dL1-20" style="edgeStyle=orthogonalEdgeStyle;rounded=0;orthogonalLoop=1;jettySize=auto;html=1;exitX=1;exitY=0.5;exitDx=0;exitDy=0;exitPerimeter=0;entryX=0;entryY=0.5;entryDx=0;entryDy=0;entryPerimeter=0;" parent="1" source="pYmCYZU_hMyukzqT8dL1-13" target="pYmCYZU_hMyukzqT8dL1-11" edge="1">
          <mxGeometry relative="1" as="geometry" />
        </mxCell>
        <mxCell id="pYmCYZU_hMyukzqT8dL1-30" style="edgeStyle=orthogonalEdgeStyle;rounded=0;orthogonalLoop=1;jettySize=auto;html=1;entryX=1;entryY=0.5;entryDx=0;entryDy=0;entryPerimeter=0;" parent="1" source="pYmCYZU_hMyukzqT8dL1-14" target="pYmCYZU_hMyukzqT8dL1-16" edge="1">
          <mxGeometry relative="1" as="geometry">
            <Array as="points">
              <mxPoint x="780" y="650" />
            </Array>
          </mxGeometry>
        </mxCell>
        <mxCell id="pYmCYZU_hMyukzqT8dL1-31" style="edgeStyle=orthogonalEdgeStyle;rounded=0;orthogonalLoop=1;jettySize=auto;html=1;entryX=1;entryY=0.5;entryDx=0;entryDy=0;entryPerimeter=0;dashed=1;dashPattern=1 4;" parent="1" source="pYmCYZU_hMyukzqT8dL1-17" target="pYmCYZU_hMyukzqT8dL1-12" edge="1">
          <mxGeometry relative="1" as="geometry">
            <Array as="points">
              <mxPoint x="670" y="530" />
            </Array>
          </mxGeometry>
        </mxCell>
        <mxCell id="pYmCYZU_hMyukzqT8dL1-33" style="edgeStyle=orthogonalEdgeStyle;rounded=0;orthogonalLoop=1;jettySize=auto;html=1;entryX=1;entryY=0.5;entryDx=0;entryDy=0;entryPerimeter=0;dashed=1;dashPattern=1 4;exitX=0.5;exitY=1;exitDx=0;exitDy=0;" parent="1" target="pYmCYZU_hMyukzqT8dL1-12" edge="1" source="pYmCYZU_hMyukzqT8dL1-8">
          <mxGeometry relative="1" as="geometry">
            <mxPoint x="530" y="230" as="sourcePoint" />
            <mxPoint x="490" y="540" as="targetPoint" />
            <Array as="points">
              <mxPoint x="590" y="530" />
            </Array>
          </mxGeometry>
        </mxCell>
        <mxCell id="TfNP4VJAbeUM-WL_LQcO-4" style="edgeStyle=orthogonalEdgeStyle;rounded=0;orthogonalLoop=1;jettySize=auto;html=1;exitX=1;exitY=0.5;exitDx=0;exitDy=0;exitPerimeter=0;entryX=0;entryY=0.5;entryDx=0;entryDy=0;" edge="1" parent="1" source="TfNP4VJAbeUM-WL_LQcO-1" target="TfNP4VJAbeUM-WL_LQcO-3">
          <mxGeometry relative="1" as="geometry" />
        </mxCell>
        <mxCell id="TfNP4VJAbeUM-WL_LQcO-1" value="User follows" style="shape=cylinder3;whiteSpace=wrap;html=1;boundedLbl=1;backgroundOutline=1;size=15;" vertex="1" parent="1">
          <mxGeometry x="320" y="380" width="100" height="80" as="geometry" />
        </mxCell>
        <mxCell id="TfNP4VJAbeUM-WL_LQcO-2" style="edgeStyle=orthogonalEdgeStyle;rounded=0;orthogonalLoop=1;jettySize=auto;html=1;entryX=0;entryY=0.5;entryDx=0;entryDy=0;entryPerimeter=0;" edge="1" parent="1" source="pYmCYZU_hMyukzqT8dL1-9" target="TfNP4VJAbeUM-WL_LQcO-1">
          <mxGeometry relative="1" as="geometry">
            <Array as="points">
              <mxPoint x="220" y="420" />
            </Array>
          </mxGeometry>
        </mxCell>
        <mxCell id="TfNP4VJAbeUM-WL_LQcO-3" value="CDC" style="shape=process;whiteSpace=wrap;html=1;backgroundOutline=1;" vertex="1" parent="1">
          <mxGeometry x="450" y="390" width="120" height="60" as="geometry" />
        </mxCell>
        <mxCell id="TfNP4VJAbeUM-WL_LQcO-7" style="edgeStyle=orthogonalEdgeStyle;rounded=0;orthogonalLoop=1;jettySize=auto;html=1;exitX=1;exitY=0.5;exitDx=0;exitDy=0;exitPerimeter=0;entryX=0.5;entryY=0;entryDx=0;entryDy=0;" edge="1" parent="1" source="TfNP4VJAbeUM-WL_LQcO-5" target="pYmCYZU_hMyukzqT8dL1-14">
          <mxGeometry relative="1" as="geometry" />
        </mxCell>
        <mxCell id="TfNP4VJAbeUM-WL_LQcO-5" value="User following" style="shape=cylinder3;whiteSpace=wrap;html=1;boundedLbl=1;backgroundOutline=1;size=15;" vertex="1" parent="1">
          <mxGeometry x="620" y="380" width="100" height="80" as="geometry" />
        </mxCell>
        <mxCell id="TfNP4VJAbeUM-WL_LQcO-6" style="edgeStyle=orthogonalEdgeStyle;rounded=0;orthogonalLoop=1;jettySize=auto;html=1;entryX=0;entryY=0.5;entryDx=0;entryDy=0;entryPerimeter=0;" edge="1" parent="1" source="TfNP4VJAbeUM-WL_LQcO-3" target="TfNP4VJAbeUM-WL_LQcO-5">
          <mxGeometry relative="1" as="geometry" />
        </mxCell>
        <mxCell id="TfNP4VJAbeUM-WL_LQcO-11" style="edgeStyle=orthogonalEdgeStyle;rounded=0;orthogonalLoop=1;jettySize=auto;html=1;entryX=0.75;entryY=0;entryDx=0;entryDy=0;" edge="1" parent="1" source="TfNP4VJAbeUM-WL_LQcO-9" target="pYmCYZU_hMyukzqT8dL1-14">
          <mxGeometry relative="1" as="geometry">
            <Array as="points">
              <mxPoint x="810" y="370" />
              <mxPoint x="810" y="370" />
            </Array>
          </mxGeometry>
        </mxCell>
        <mxCell id="TfNP4VJAbeUM-WL_LQcO-9" value="Popular users" style="shape=cylinder3;whiteSpace=wrap;html=1;boundedLbl=1;backgroundOutline=1;size=15;" vertex="1" parent="1">
          <mxGeometry x="770" y="290" width="60" height="80" as="geometry" />
        </mxCell>
        <mxCell id="TfNP4VJAbeUM-WL_LQcO-10" style="edgeStyle=orthogonalEdgeStyle;rounded=0;orthogonalLoop=1;jettySize=auto;html=1;entryX=0;entryY=0.5;entryDx=0;entryDy=0;entryPerimeter=0;" edge="1" parent="1" source="pYmCYZU_hMyukzqT8dL1-17" target="TfNP4VJAbeUM-WL_LQcO-9">
          <mxGeometry relative="1" as="geometry" />
        </mxCell>
        <mxCell id="TfNP4VJAbeUM-WL_LQcO-12" value="Popular posts Redis" style="shape=cylinder3;whiteSpace=wrap;html=1;boundedLbl=1;backgroundOutline=1;size=15;" vertex="1" parent="1">
          <mxGeometry x="320" y="60" width="100" height="80" as="geometry" />
        </mxCell>
        <mxCell id="TfNP4VJAbeUM-WL_LQcO-13" style="edgeStyle=orthogonalEdgeStyle;rounded=0;orthogonalLoop=1;jettySize=auto;html=1;entryX=0;entryY=0.5;entryDx=0;entryDy=0;entryPerimeter=0;startArrow=classic;startFill=1;" edge="1" parent="1" source="pYmCYZU_hMyukzqT8dL1-6" target="TfNP4VJAbeUM-WL_LQcO-12">
          <mxGeometry relative="1" as="geometry">
            <Array as="points">
              <mxPoint x="220" y="100" />
            </Array>
          </mxGeometry>
        </mxCell>
        <mxCell id="TfNP4VJAbeUM-WL_LQcO-14" value="Feed cache in mem" style="shape=cylinder3;whiteSpace=wrap;html=1;boundedLbl=1;backgroundOutline=1;size=15;" vertex="1" parent="1">
          <mxGeometry x="320" y="710" width="100" height="80" as="geometry" />
        </mxCell>
        <mxCell id="TfNP4VJAbeUM-WL_LQcO-15" style="edgeStyle=orthogonalEdgeStyle;rounded=0;orthogonalLoop=1;jettySize=auto;html=1;entryX=0;entryY=0.5;entryDx=0;entryDy=0;entryPerimeter=0;startArrow=classic;startFill=1;" edge="1" parent="1" source="pYmCYZU_hMyukzqT8dL1-15" target="TfNP4VJAbeUM-WL_LQcO-14">
          <mxGeometry relative="1" as="geometry">
            <Array as="points">
              <mxPoint x="200" y="750" />
            </Array>
          </mxGeometry>
        </mxCell>
      </root>
    </mxGraphModel>
  </diagram>
</mxfile>
